<svg xmlns="http://www.w3.org/2000/svg" xmlns:xlink="http://www.w3.org/1999/xlink" width="40" zoomAndPan="magnify" viewBox="0 0 30 30.000001" height="40" preserveAspectRatio="xMidYMid meet" version="1.0"><defs><clipPath id="74818c8dbf"><path d="M 1.097656 0.613281 L 28.679688 0.613281 L 28.679688 28.195312 L 1.097656 28.195312 Z M 1.097656 0.613281 " clip-rule="nonzero"/></clipPath></defs><path fill="#042354" d="M 13.707031 13.949219 L 13.71875 13.960938 L 13.453125 14.125 C 12.996094 14.398438 12.765625 14.914062 12.859375 15.4375 C 12.949219 15.921875 13.351562 16.332031 13.835938 16.429688 C 14.246094 16.511719 14.65625 16.394531 14.957031 16.109375 L 14.972656 16.09375 C 15.101562 15.96875 15.199219 15.8125 15.265625 15.644531 L 15.292969 15.589844 L 18.566406 10.65625 Z M 14.09375 17.019531 C 13.972656 17.019531 13.847656 17.003906 13.722656 16.980469 C 13.007812 16.835938 12.4375 16.253906 12.304688 15.535156 C 12.1875 14.882812 12.421875 14.242188 12.910156 13.824219 L 12.902344 13.8125 L 18.273438 10.207031 C 18.492188 10.0625 18.777344 10.089844 18.964844 10.273438 C 19.152344 10.460938 19.183594 10.746094 19.035156 10.964844 L 15.777344 15.878906 C 15.6875 16.105469 15.546875 16.316406 15.375 16.488281 L 15.160156 16.824219 L 15.089844 16.71875 C 14.792969 16.914062 14.449219 17.019531 14.09375 17.019531 " fill-opacity="1" fill-rule="nonzero"/><g clip-path="url(#74818c8dbf)"><path fill="#042354" d="M 14.886719 28.195312 C 7.285156 28.195312 1.097656 22.007812 1.097656 14.40625 C 1.097656 6.800781 7.285156 0.613281 14.886719 0.613281 L 15.167969 0.613281 L 15.167969 7.574219 L 14.605469 7.574219 L 14.605469 1.179688 C 7.441406 1.328125 1.660156 7.203125 1.660156 14.40625 C 1.660156 21.699219 7.59375 27.632812 14.886719 27.632812 C 22.183594 27.632812 28.117188 21.699219 28.117188 14.40625 C 28.117188 10.683594 26.535156 7.117188 23.78125 4.613281 L 24.160156 4.195312 C 27.03125 6.804688 28.679688 10.527344 28.679688 14.40625 C 28.679688 22.007812 22.492188 28.195312 14.886719 28.195312 " fill-opacity="1" fill-rule="nonzero"/></g></svg>